<svg xmlns:xlink="http://www.w3.org/1999/xlink" xmlns="http://www.w3.org/2000/svg" data-name="1" viewBox="0 0 1159 771" width="1159"  height="771" ><path fill="#fef8ec" d="M1035.61 565.63c-4.67-87.54 49.92-173.08 21.87-249.27-23-62.34-79.9-70-128.22-113.62-44.13-39.86-38.88-137.33-136.67-173.26-53.9-19.8-156 26-229.73 28-151.72 4.12-250-57-315.36-4.51-72.12 57.88-21.5 105.57-72.5 149.77-53.63 46.48-88.59 64.1-97.88 128.64-12.12 84.4 23.38 113.46 29.6 177.8 6 62.26-79.26 229.71-10.39 229.71h921.46c83.4 0 21.46-104.89 17.82-173.26Z" class="colorfef8ec svgShape"/><path fill="#ffe594" d="M897.38 276.57c-9.43-6-22.5-6.15-31.67.26-8.71 6.09-13.14 17.17-12.71 27.8s5.53 23.6 15.15 29.17l28.25-.11c9-6.63 15.12-17.31 15.54-28.5s-5.13-22.58-14.56-28.62Z" class="colorffe594 svgShape"/><path fill="#ffcb78" d="M881.82 282.06c-.25-2.79-.49-5.05-.68-6.6a11.36 11.36 0 0 0-.39-2.4 13.26 13.26 0 0 0 0 2.43c.1 1.73.24 3.95.39 6.62.35 5.58.81 13.29 1.19 21.82s.59 16.25.73 21.84c.08 2.67.14 4.9.2 6.63a12.74 12.74 0 0 0 .17 2.43 12.74 12.74 0 0 0 .17-2.43c.06-1.57.09-3.83.1-6.63 0-5.6-.1-13.34-.47-21.87s-.9-16.26-1.41-21.84ZM878.15 273.23a28.29 28.29 0 0 0-5.9 4.61c-4.51 4.41-9.16 12.4-10.28 22.1a47.78 47.78 0 0 0 .67 13.58 89.38 89.38 0 0 0 2.71 10.74c.95 3 1.84 5.39 2.47 7a15 15 0 0 0 1.09 2.5 16.72 16.72 0 0 0-.76-2.62c-.53-1.67-1.33-4.09-2.19-7.1a101 101 0 0 1-2.5-10.7 48.61 48.61 0 0 1-.59-13.34 38.6 38.6 0 0 1 9.84-21.76c4.31-4.54 8-6 7.91-6.25 0 0-.24.06-.66.26a17.24 17.24 0 0 0-1.81.98Z" class="colorffcb78 svgShape"/><path fill="#ffcb78" d="M896.3 286.17a30.94 30.94 0 0 0-6.88-9.25 22.08 22.08 0 0 0-6.71-3.9 14 14 0 0 0-2-.55 2.31 2.31 0 0 0-.74-.06c0 .08 1 .24 2.66.94a23.66 23.66 0 0 1 6.41 4 31.45 31.45 0 0 1 6.55 9.12 46.83 46.83 0 0 1 3.84 13.28A54.91 54.91 0 0 1 897 324.7c-2 6.17-4.25 9.59-4.06 9.69a16.49 16.49 0 0 0 1.51-2.41c.43-.8.91-1.81 1.49-3s1.15-2.53 1.66-4.09a53 53 0 0 0 2.71-25.24 45.91 45.91 0 0 0-4.01-13.48Z" class="colorffcb78 svgShape"/><path fill="#5c94b9" d="M864.08 357.12a11.56 11.56 0 0 0 11.51 10.48h15.32a11.57 11.57 0 0 0 11.51-10.45l1.9-19.59-42.11-.33Z" class="color5c94b9 svgShape"/><path fill="#4b83a8" d="M862.72 342.08s18.53 1.15 40.92 2.51l.68-7-42.11-.33ZM867.4 364.19a11.53 11.53 0 0 0 8.19 3.41h15.32a11.57 11.57 0 0 0 11.51-10.45l.77-8s-7.92 17.38-35.79 15.04Z" class="color4b83a8 svgShape"/><rect width="46.75" height="9.95" x="859.78" y="332.25" fill="#f84558" rx="3.43" class="colorf84558 svgShape"/><path fill="#ffcb78" d="M852.55 300.25c-6.17-.71-6.46 3.79 1.61 3.47 2.92.4 5.52-2.67-1.61-3.47ZM854.25 289.91c-7-2.87-5.34 3.16 1.9 4.09 1.79-.67 2.4-2.15-1.9-4.09ZM867.44 279.17c-.29-2.36.07-1.64-1.94-5.59-5.39-5.32-1.87 9.88 1.94 5.59ZM859 280.87c-6.8-3.32 1.38 10 3.62 4.68-1.08-2.15-.51-1.55-3.62-4.68ZM871.88 267.15c-2.2 1.21-1.11 6.51 2 8.42 2.37.09.61-7.93-2-8.42ZM886.79 273.42c.94-2.07 2-3.07.44-5.73-2.43-1.69-5.15 9.24-.44 5.73ZM895.87 275.78c.75-1.47 3.22-1.93 1-4.07-2.14-1.64-9.39 9.49-1 4.07ZM900.82 282.3c.78.07 6.16-1.76 4.67-5.05-.26-.84-9.12 3.2-4.67 5.05ZM904.77 290.15c.41.46 9-1.78 6.93-4.62-.03-1.1-10.82 2.1-6.93 4.62ZM910.22 294.05c-7.32.63-2.8 6 3.9 2.21.79-1.4.46-2.5-3.9-2.21ZM912.39 303.57c-6.79-2.67-5.15 3.22 1.81 4 1.85-.13 2.63-2.11-1.81-4ZM912.46 313.44c-5.1-5.34-11.1-.56.69 3.51 1.4-.12 2.55-1.7-.69-3.51ZM907.06 320.49c-4.79-5.41-5.7 1.19-.14 4.4 3.58 2.11 3.58-1.65.14-4.4ZM855.42 329.75c.6.38 9.92-2.94 7.61-5.67-.68-1-11.62 3.13-7.61 5.67ZM854.68 317.09c-4.42 1.62-4.12 6.75 3.32 2.09 2.07-1.5 1.73-4.27-3.32-2.09ZM851.6 309.39c-10.12 2 1.7 6.32 4.52 1.06-.12-.72-.86-1.45-4.52-1.06ZM862.57 305.69c-3.88-.49-8.36 3.55-.33 3.46 1.85.5 7.69-3.99.33-3.46ZM867.43 298.81c-.47 2.15 7.06 3 7.29-.71-.28-.9-6.09-.75-7.29.71ZM873.34 289.3c-3.48-1.6-6.93.66-1.11 3.21 2.45 1.49 7.45-.51 1.11-3.21ZM876 280.47c-5.47 4.59 10.4 9.25 0 0ZM873.76 312.64c.6-.16 4.07-1 2.46-3.35-1.28-1.69-12.42 4.35-2.46 3.35ZM876.69 323.57c-7.83-.81-11.78 9.91.7 1.77-.18.01.94-.73-.7-1.77ZM864.15 318.52c-6.76 1.89 1.23 6.83 3.72.53-.43-.88-1.87-1.24-3.72-.53ZM865 292.6c-6.89-2.65-5.62 3.42 2 3.88 2.28-.12 2.48-2.78-2-3.88ZM889.28 291.46c-1.41-.25-6.91 5.71-1.74 4.82 3.06-1.06 7.16-5.56 1.74-4.82ZM889.47 303.23c-6.67 1.1.21 6.71 3.56 1-.33-.94-1.67-1.46-3.56-1ZM891.43 315.26c-5.77-2.62-6.16 2.78 1.62 4 1.26-.26 2.95-2.08-1.62-4ZM886.52 326.68c-1.85.59 3 8.43 4.94 4.48-.14-.4-1.16-4.57-4.94-4.48ZM887.3 283c-.63.34-1.28.59-2 2.5.7 4.37 10.61-4.76 2-2.5ZM898.43 294.59c-6.34.16-3.52 6.27 3.49 1.91.42-1.5.08-2.4-3.49-1.91ZM895.55 284.26c-1.49.61-3.83 1-3.24 3.11 2.2 3.19 13.38-5.37 3.24-3.11ZM900.88 310.67c-7.75-2.5-8.21 2.62-.78 3.29 3.3 1.16 7.61-2.46.78-3.29ZM893.71 322.72c-1.34 2.18 2.3 6.51 6 6.87 2.29-.9-3.52-7.76-6-6.87Z" class="colorffcb78 svgShape"/><path fill="#f2e6d6" d="M873.18 537.9s-.88 29.27-26.86 46.37h-16.38s6.41-42.09 43.24-46.37Z" class="colorf2e6d6 svgShape"/><path fill="#d8cdc0" d="M837 584.27h-7s2.7-17.73 14.66-31.34c.15 17.07-7.66 31.34-7.66 31.34Z" class="colord8cdc0 svgShape"/><path fill="#f2e6d6" d="M832.27 584.27h-27.4s-14.55-111.69 39.94-172.65c0 0 25.11 90.38-12.54 172.65Z" class="colorf2e6d6 svgShape"/><path fill="#d8cdc0" d="M810.09 584.27h-5.22a324.92 324.92 0 0 1-.1-67.23c8.95 25.31 5.32 67.23 5.32 67.23Z" class="colord8cdc0 svgShape"/><path fill="#f2e6d6" d="M806 584.27h-27.4c-29.46-48 2.2-130 2.2-130 34.31 56.04 25.2 130 25.2 130Z" class="colorf2e6d6 svgShape"/><path fill="#fef8ec" d="M786.59 585.44h-.22a1.16 1.16 0 0 1-.92-1.36c10.32-53.8-5.61-128.81-5.77-129.56a1.18 1.18 0 0 1 .9-1.39 1.15 1.15 0 0 1 1.42.87c.17.76 16.2 76.23 5.78 130.5a1.18 1.18 0 0 1-1.19.94Z" class="colorfef8ec svgShape"/><path fill="#d8cdc0" d="M799 584.27h-20.4c-11.06-18-13.5-40.82-12.24-62.29 32.33 27.26 32.64 62.29 32.64 62.29Z" class="colord8cdc0 svgShape"/><path fill="#f2e6d6" d="M796.63 584.27h-27.39c-43.44-28.59-44.9-77.52-44.9-77.52 61.57 7.14 72.29 77.52 72.29 77.52Z" class="colorf2e6d6 svgShape"/><path fill="#fef8ec" d="M778.62 585.44a1.17 1.17 0 0 1-1.13-.9c-10.36-42.68-53.43-76.53-53.87-76.87a1.17 1.17 0 1 1 1.43-1.85c.44.35 44.15 34.69 54.71 78.17a1.17 1.17 0 0 1-.86 1.41 1.35 1.35 0 0 1-.28.04ZM821.06 582.42a1.16 1.16 0 0 1-1.17-1.13c-1.79-59 23.53-168.83 23.79-169.94a1.17 1.17 0 1 1 2.27.53c-.25 1.1-25.51 110.63-23.73 169.34a1.16 1.16 0 0 1-1.13 1.2ZM839.32 585.44a1.14 1.14 0 0 1-.4-.08 1.17 1.17 0 0 1-.7-1.49c11.33-31.14 34.08-46.78 34.31-46.93a1.16 1.16 0 1 1 1.3 1.93c-.22.15-22.35 15.4-33.41 45.8a1.18 1.18 0 0 1-1.1.77Z" class="colorfef8ec svgShape"/><path fill="#f2e6d6" d="M866.23 581.26c17.77 52.53.28 113.79-39 151.28h-34c-39.28-37.49-56.77-98.75-39-151.28ZM780.37 734.87h59.68c4.23 0 7.7 5.62 7.7 9.86h-75.08c0-4.24 3.47-9.86 7.7-9.86Z" class="colorf2e6d6 svgShape"/><path fill="#fef8ec" d="M866.23 582.42h-112a1.17 1.17 0 1 1 0-2.33h112a1.17 1.17 0 0 1 0 2.33ZM873.18 628H799a1.17 1.17 0 1 1 0-2.34h74.16a1.17 1.17 0 1 1 0 2.34ZM866.61 669H826a1.17 1.17 0 1 1 0-2.33h40.58a1.17 1.17 0 1 1 0 2.33ZM813.6 652.46h-63.84a1.17 1.17 0 1 1 0-2.34h63.84a1.17 1.17 0 0 1 0 2.34Z" class="colorfef8ec svgShape"/><path fill="#ffffff" d="M149.01 367.6h842.85v22.88H149.01z" class="colorfff svgShape"/><path fill="#1b2e4e" d="M992.56 391.18H148.3v-24.29h844.26Zm-842.84-1.41h841.43V368.3H149.72Z" class="color1b2e4e svgShape"/><path fill="#1b2e4e" d="M182.81 396.05h605.12v348.68h5.77V390.29H177.05v354.44h5.76V396.05z" class="color1b2e4e svgShape"/><path fill="#1b2e4e" d="M344.7 396.05h618.27v348.68h5.77V390.29h-629.8v354.44h5.76V396.05z" class="color1b2e4e svgShape"/><path fill="#f2e6d6" d="M763.36 367.6h228.49v22.88H763.36z" transform="rotate(180 877.61 379.035)" class="colorf2e6d6 svgShape"/><path fill="#1b2e4e" d="M992.56 391.18h-229.9v-24.29h229.9Zm-228.49-1.41h227.08V368.3H764.07ZM680.73 367.7H632.5L615 276.59a23.69 23.69 0 0 1 23.26-28.16 23.69 23.69 0 0 1 23.26 19.22Z" class="color1b2e4e svgShape"/><path fill="#e1cac2" d="M554.31 359.57h127.74v8.13H554.31z" class="colore1cac2 svgShape"/><path fill="#361e4d" d="M554.31 358.59h104.78v1.97H554.31z" class="color361e4d svgShape"/><path fill="#f84558" d="M492.74 331.83h275.39A14.36 14.36 0 0 0 782.41 319l17.42-166.35a14.35 14.35 0 0 0-14.27-15.85H510.17a14.35 14.35 0 0 0-14.28 12.86L478.47 316a14.35 14.35 0 0 0 14.27 15.83Z" class="colorf84558 svgShape"/><path fill="#1b2e4e" d="M768.13 333H492.74a15.52 15.52 0 0 1-15.43-17.14l17.42-166.35a15.48 15.48 0 0 1 15.44-13.91h275.39A15.51 15.51 0 0 1 801 152.74l-17.43 166.35A15.49 15.49 0 0 1 768.13 333Zm-258-195.07a13.15 13.15 0 0 0-13.12 11.82L479.63 316.1a13.17 13.17 0 0 0 13.11 14.56h275.39a13.16 13.16 0 0 0 13.12-11.81l17.42-166.36a13.2 13.2 0 0 0-13.11-14.56Z" class="color1b2e4e svgShape"/><path fill="#ffffff" d="M773.26 311.42a3.5 3.5 0 0 0 3.48-3.13l16.38-156.38a7.55 7.55 0 0 0-1.75-5.7 8 8 0 0 0-6.15-2.69h-275a7.59 7.59 0 0 0-7.57 6.81l-16.51 157.23a3.49 3.49 0 0 0 3.48 3.86Z" class="colorfff svgShape"/><path fill="#f84558" d="M492 353.57h267.24v10a4 4 0 0 1-4 4H496a4 4 0 0 1-4-4v-10Z" transform="rotate(180 625.64 360.59)" class="colorf84558 svgShape"/><path fill="#ffa47f" d="m729.46 253.37 8-.57.89-9-7.77-1.56a26.77 26.77 0 0 0-2.79-9.48l5.47-6.18-5.57-6.79-6.77 4.6a24.61 24.61 0 0 0-8.58-4.38l-.23-8.2-8.76-.55-1.82 8.07a26.52 26.52 0 0 0-9.33 3.25l-5.8-5.38-6.82 6 4.2 6.8a28.63 28.63 0 0 0-4.61 9l-8 .57-.88 9 7.77 1.56a26.57 26.57 0 0 0 2.79 9.48l-5.47 6.19 5.56 6.78 6.78-4.59a25 25 0 0 0 8.58 4.38l.23 8.19 8.75.55 1.83-8.07a26.59 26.59 0 0 0 9.33-3.25l5.79 5.39 6.82-6-4.19-6.79a28.76 28.76 0 0 0 4.6-9.02Z" class="colorffa47f svgShape"/><path fill="#1b2e4e" d="m701.78 278.2-8.76-.55a.59.59 0 0 1-.55-.56l-.22-7.78a24.93 24.93 0 0 1-8-4.1l-6.42 4.36a.58.58 0 0 1-.78-.11l-5.57-6.79a.58.58 0 0 1 0-.75l5.21-5.89a27.28 27.28 0 0 1-2.63-8.9l-7.35-1.48a.59.59 0 0 1-.47-.62l.89-9.05a.59.59 0 0 1 .54-.52l7.58-.54a29.32 29.32 0 0 1 4.34-8.5l-4-6.45a.6.6 0 0 1 .11-.75l6.83-6a.57.57 0 0 1 .78 0l5.48 5.09a27.35 27.35 0 0 1 8.76-3l1.74-7.68a.57.57 0 0 1 .61-.45l8.75.55a.58.58 0 0 1 .55.56l.22 7.78a25.11 25.11 0 0 1 8 4.09l6.42-4.35a.58.58 0 0 1 .78.11l5.57 6.78a.6.6 0 0 1 0 .76l-5.19 5.85a27.27 27.27 0 0 1 2.62 8.9l7.35 1.47a.59.59 0 0 1 .47.63l-.89 9.05a.59.59 0 0 1-.54.52l-7.58.54a29.08 29.08 0 0 1-4.34 8.5l4 6.45a.58.58 0 0 1-.11.74l-6.82 6a.58.58 0 0 1-.79 0l-5.52-5.11a27.35 27.35 0 0 1-8.76 3.05l-1.74 7.68a.58.58 0 0 1-.57.47Zm-8.19-1.68 7.73.49 1.72-7.59a.56.56 0 0 1 .48-.44 26.17 26.17 0 0 0 9.13-3.19.59.59 0 0 1 .68.08l5.41 5 6.06-5.34-3.94-6.37a.59.59 0 0 1 0-.66 28 28 0 0 0 4.51-8.83.58.58 0 0 1 .52-.41l7.49-.54.78-8-7.25-1.46a.56.56 0 0 1-.46-.51 26.13 26.13 0 0 0-2.73-9.27.59.59 0 0 1 .08-.66L729 223l-4.91-6-6.33 4.3a.6.6 0 0 1-.7 0 24 24 0 0 0-8.37-4.27.59.59 0 0 1-.43-.55l-.21-7.66-7.73-.49-1.72 7.59a.56.56 0 0 1-.48.44 26.05 26.05 0 0 0-9.12 3.19.61.61 0 0 1-.69-.08l-5.41-5-6.06 5.33 3.94 6.38a.57.57 0 0 1 0 .66 28 28 0 0 0-4.51 8.83.58.58 0 0 1-.52.41l-7.48.53-.79 8 7.25 1.46a.58.58 0 0 1 .47.51 26.12 26.12 0 0 0 2.72 9.27.57.57 0 0 1-.08.66l-5.14 5.81 4.91 6 6.34-4.3a.59.59 0 0 1 .69 0 24.15 24.15 0 0 0 8.37 4.27.59.59 0 0 1 .43.55Z" class="color1b2e4e svgShape"/><path fill="#ffffff" d="M690.66 238.61c-3.71 7.25-1.13 16 5.76 19.51s15.49.52 19.2-6.73 1.13-16-5.76-19.5-15.49-.52-19.2 6.72Z" class="colorfff svgShape"/><path fill="#1b2e4e" d="M700.21 257.84a13.89 13.89 0 0 1-6.39-1.54c-7.16-3.67-9.86-12.77-6-20.29 3.85-7.51 12.81-10.64 20-7s9.86 12.77 6 20.29a15.4 15.4 0 0 1-13.61 8.54Zm-11.36-21.29c-3.56 6.94-1.09 15.34 5.51 18.71s14.85.48 18.4-6.47 1.09-15.34-5.5-18.71-14.86-.48-18.41 6.47Z" class="color1b2e4e svgShape"/><path fill="#ffa47f" d="m765.47 196.72 6.43-.46.72-7.29-6.27-1.26a21.37 21.37 0 0 0-2.25-7.64l4.41-5-4.51-5.47-5.47 3.71a19.85 19.85 0 0 0-6.92-3.53l-.18-6.61-7.07-.45-1.47 6.51a21.58 21.58 0 0 0-7.53 2.63l-4.67-4.35-5.5 4.85 3.38 5.48a23.18 23.18 0 0 0-3.71 7.27l-6.44.46-.71 7.29 6.27 1.26a21.37 21.37 0 0 0 2.25 7.64l-4.42 5 4.49 5.48 5.47-3.71a20 20 0 0 0 6.92 3.53l.18 6.61 7.07.45 1.47-6.51A21.53 21.53 0 0 0 755 210l4.68 4.35 5.5-4.85-3.42-5.5a23.4 23.4 0 0 0 3.71-7.28Z" class="colorffa47f svgShape"/><path fill="#1b2e4e" d="m742.47 216.19-7.07-.45a.58.58 0 0 1-.54-.56l-.18-6.19a20.53 20.53 0 0 1-6.37-3.25l-5.11 3.47a.58.58 0 0 1-.78-.12l-4.49-5.47a.6.6 0 0 1 0-.76l4.16-4.69a22.16 22.16 0 0 1-2.09-7.07l-5.85-1.17a.58.58 0 0 1-.46-.63l.71-7.29a.59.59 0 0 1 .54-.53l6-.43a23.81 23.81 0 0 1 3.45-6.75l-3.18-5.14a.58.58 0 0 1 .11-.74l5.5-4.85a.6.6 0 0 1 .79 0l4.36 4.06a22.1 22.1 0 0 1 7-2.43l1.38-6.12a.58.58 0 0 1 .61-.45l7.06.44a.59.59 0 0 1 .55.57l.17 6.19a20.32 20.32 0 0 1 6.37 3.25l5.12-3.47a.59.59 0 0 1 .78.11l4.48 5.48a.56.56 0 0 1 0 .75l-4.15 4.7a21.76 21.76 0 0 1 2.08 7.06l5.85 1.17a.58.58 0 0 1 .47.63l-.72 7.3a.57.57 0 0 1-.54.52l-6 .43a23.4 23.4 0 0 1-3.44 6.75l3.17 5.14a.58.58 0 0 1-.11.75l-5.5 4.84a.57.57 0 0 1-.78 0l-4.36-4.05a21.92 21.92 0 0 1-7 2.42l-1.46 6.12a.58.58 0 0 1-.53.46Zm-6.5-1.58 6 .38 1.36-6a.57.57 0 0 1 .48-.45 21 21 0 0 0 7.32-2.55.59.59 0 0 1 .69.07l4.29 4 4.73-4.17-3.12-5.06a.57.57 0 0 1 0-.66 22.66 22.66 0 0 0 3.62-7.09.57.57 0 0 1 .51-.41l6-.43.62-6.28-5.75-1.15a.57.57 0 0 1-.47-.51 20.75 20.75 0 0 0-2.19-7.44.58.58 0 0 1 .08-.65l4.09-4.62-3.84-4.68-5 3.41a.6.6 0 0 1-.69 0 19.29 19.29 0 0 0-6.72-3.43.57.57 0 0 1-.42-.55l-.17-6.08-6-.38-1.36 6a.61.61 0 0 1-.49.45 20.68 20.68 0 0 0-7.32 2.55.56.56 0 0 1-.68-.08l-4.29-4-4.78 4.2 3.13 5a.59.59 0 0 1 0 .66 22.14 22.14 0 0 0-3.62 7.09.59.59 0 0 1-.52.41l-5.95.42-.61 6.28 5.75 1.15a.57.57 0 0 1 .46.51 21 21 0 0 0 2.19 7.44.59.59 0 0 1-.08.66l-4.08 4.62 3.83 4.67 5-3.41a.59.59 0 0 1 .69 0 19.29 19.29 0 0 0 6.72 3.43.59.59 0 0 1 .42.54Z" class="color1b2e4e svgShape"/><path fill="#ffffff" d="M734 184.64a11.51 11.51 0 0 0 4.61 15.6c5.51 2.82 12.39.41 15.35-5.38s.91-12.78-4.61-15.6-12.35-.42-15.35 5.38Z" class="colorfff svgShape"/><path fill="#1b2e4e" d="M741.2 199.66a11.2 11.2 0 0 1-5.16-1.24 11.47 11.47 0 0 1-5.78-7 12.64 12.64 0 0 1 .91-9.35c3.11-6.07 10.36-8.59 16.15-5.63a11.47 11.47 0 0 1 5.78 7 12.64 12.64 0 0 1-.92 9.35 12.43 12.43 0 0 1-10.98 6.87Zm.95-23.33a11.29 11.29 0 0 0-9.94 6.24 11.44 11.44 0 0 0-.83 8.48 10.28 10.28 0 0 0 5.19 6.33c5.22 2.68 11.76.38 14.57-5.12a11.4 11.4 0 0 0 .83-8.48 10.19 10.19 0 0 0-9.82-7.45Z" class="color1b2e4e svgShape"/><path fill="#f2e6d6" d="M688.07 289.83a5.84 5.84 0 0 0 5.81-5.23l18.24-174.17a8.55 8.55 0 0 0-8.5-9.44H484.47a8.54 8.54 0 0 0-8.51 7.66l-18.29 174.74a5.83 5.83 0 0 0 5.8 6.44Z" class="colorf2e6d6 svgShape"/><path fill="#1b2e4e" d="M712.12 110.43a8.55 8.55 0 0 0-8.5-9.44H484.47a8.54 8.54 0 0 0-8.51 7.66l-1.67 15.95h236.35Z" class="color1b2e4e svgShape"/><path fill="#ffffff" d="M702.54 113.09a2.92 2.92 0 1 1-2.58-3.42 3 3 0 0 1 2.58 3.42ZM689.7 113.09a2.92 2.92 0 1 1-2.58-3.42 3 3 0 0 1 2.58 3.42ZM676.86 113.09a2.92 2.92 0 1 1-2.58-3.42 3 3 0 0 1 2.58 3.42Z" class="colorfff svgShape"/><path fill="#5c94b9" d="M602.71 153.58h-84.66l1.14-5.5h84.66l-1.14 5.5zM621.96 164.31h-83.31l1.15-5.51h83.3l-1.14 5.51zM580.07 174.6h-65.9l1.15-5.51h65.89l-1.14 5.51z" class="color5c94b9 svgShape"/><path fill="#f84558" d="M643.26 174.6h-56.4l1.15-5.51h56.39l-1.14 5.51zM616.98 185.32h-76.26l1.15-5.5h76.25l-1.14 5.5z" class="colorf84558 svgShape"/><path fill="#5c94b9" d="M647.26 196.05H523.75l1.14-5.51h123.52l-1.15 5.51zM637.25 207.21H508.13l1.14-5.5h129.12l-1.14 5.5zM598.26 217.93h-72.47l1.15-5.5h72.46l-1.14 5.5z" class="color5c94b9 svgShape"/><path fill="#f84558" d="M657.43 217.93h-53.34l1.15-5.5h53.33l-1.14 5.5z" class="colorf84558 svgShape"/><path fill="#5c94b9" d="M561.57 228.22h-57.32l1.15-5.5h57.32l-1.15 5.5zM644.45 228.22h-76.96l1.14-5.5h76.96l-1.14 5.5zM590.48 260.08h-72.46l1.14-5.51h72.47l-1.15 5.51z" class="color5c94b9 svgShape"/><path fill="#f84558" d="M649.65 260.08h-53.33l1.14-5.51h53.33l-1.14 5.51z" class="colorf84558 svgShape"/><path fill="#5c94b9" d="M553.8 270.37h-57.32l1.14-5.51h57.32l-1.14 5.51zM636.68 270.37h-76.97l1.14-5.51h76.97l-1.14 5.51z" class="color5c94b9 svgShape"/><path fill="#f84558" d="M593.42 238.95h-66.33l1.14-5.51h66.33l-1.14 5.51z" class="colorf84558 svgShape"/><path fill="#5c94b9" d="M619.51 249.67H512.07l1.14-5.5h107.44l-1.14 5.5zM653.49 276.86l.49-2.37a5.09 5.09 0 0 0 3.34-.56 4.7 4.7 0 0 0 1.64-3.08l1.28-6.19q.82-4 3.89-4.82c-1.81-.57-2.44-2.17-1.89-4.82l1.29-6.19c.31-1.53.2-2.56-.37-3.07s-1.59-.71-3.1-.56l.49-2.37q3.29-.3 4.7 1.2t.72 4.8l-1.28 6.17c-.31 1.49-.21 2.46.28 2.93a4.19 4.19 0 0 0 2.82.71l-.49 2.36a5.55 5.55 0 0 0-3.11.7 4.56 4.56 0 0 0-1.5 2.93l-1.29 6.19a7.55 7.55 0 0 1-2.72 4.8 7.29 7.29 0 0 1-5.19 1.24ZM500.79 169.72q-1.41-1.5-.72-4.8l1.28-6.19c.31-1.49.21-2.46-.28-2.93a4.17 4.17 0 0 0-2.82-.71l.49-2.37a5.55 5.55 0 0 0 3.11-.7 4.56 4.56 0 0 0 1.5-2.93l1.29-6.19a7.6 7.6 0 0 1 2.72-4.81 7.31 7.31 0 0 1 5.2-1.2l-.5 2.37a5 5 0 0 0-3.34.56 4.7 4.7 0 0 0-1.64 3.08l-1.28 6.19q-.82 4-3.89 4.82c1.81.57 2.44 2.17 1.89 4.82l-1.29 6.19c-.32 1.53-.19 2.56.37 3.07s1.59.71 3.11.56l-.5 2.37c-2.19.2-3.75-.2-4.7-1.2Z" class="color5c94b9 svgShape"/><path fill="#d3c8bc" d="M257.11 551.57h-15.77S198 544.71 208 461a28.77 28.77 0 0 1 18.63-23.61c23.54-8.56 71.53-22.56 134.32-22.56 0 0 .63.05 1.66.24-55.87 1.87-98.5 14.4-120.21 22.32A28.77 28.77 0 0 0 223.77 461c-10.04 83.71 33.34 90.57 33.34 90.57Z" class="colord3c8bc svgShape"/><path fill="#1b2e4e" d="M257.11 552.44h-15.9c-.46-.07-11.3-1.91-21-14.21-8.85-11.25-18.3-33.79-13.08-77.34a29.52 29.52 0 0 1 19.2-24.32c23.21-8.45 71.56-22.62 134.62-22.62.11 0 .76.07 1.81.26l8 1.47-8.09.27c-56.41 1.88-99.35 14.76-119.93 22.26a27.79 27.79 0 0 0-18.07 22.89c-5.14 42.84 4 64.94 12.63 75.93 9.26 11.84 19.87 13.67 20 13.68Zm-15.69-1.75h10.17A41.09 41.09 0 0 1 236 538.22c-8.85-11.25-18.3-33.79-13.07-77.34a29.48 29.48 0 0 1 19.19-24.32 381.76 381.76 0 0 1 80.42-19.11c-43.91 4.05-77.45 14.16-95.58 20.75a27.77 27.77 0 0 0-18.06 22.89c-5.14 42.84 4 64.94 12.63 75.93 8.87 11.37 19.01 13.51 19.89 13.67Z" class="color1b2e4e svgShape"/><path fill="#f0e3dd" d="M395.8 457.15c-13.26 39.78-26.8 73.39-26.8 73.39s-6.46 21-32.65 21h-15.81c26.2 0 32.67-21 32.67-21s13.58-33.61 26.82-73.39c11.42-34.24-11-40.91-17.41-42.09 4.61-.17 9.32-.24 14.11-.24 0 0 32.32 2.58 19.07 42.33Z" class="colorf0e3dd svgShape"/><path fill="#1b2e4e" d="M256.88 553.51c-1.85-.29-45.14-8.13-35-92.75a30.56 30.56 0 0 1 19.91-25.22c23.25-8.48 71.7-22.7 135-22.7h.21c.53 0 13 1.15 19.81 11.49 5.35 8.09 5.68 19.34 1 33.44-13.19 39.38-26.81 73.23-26.88 73.36s-7.21 22.4-34.54 22.4H257Zm-13.72-114.27a26.61 26.61 0 0 0-17.35 22c-9.42 78.4 29.07 87.84 31.56 88.37h79c24.35 0 30.53-18.83 30.83-19.79.14-.33 13.71-34 26.8-73.27 4.29-12.88 4.12-23-.51-30-5.52-8.38-15.87-9.67-16.8-9.76-62.62 0-110.54 14.06-133.53 22.45ZM651.09 368.28S646.6 344 625.75 344c-23.16 0-33.34 13.66-38.92 24.09ZM364.12 712.88s-10.43 4.2-28.61-25.86-15.76-58.68-3.4-68.86 37.83 23.28 45.58 44.13 11.16 54.39-13.57 50.59Z" class="color1b2e4e svgShape"/><path fill="#f84558" d="M365.33 654.17c-17.09 4.43-32.84 17.51-41.44 41.44-3 8.34-6.58 16.36-4.74 25.55 1.6 8 8 15.07 13.78 18.83 1.87 1.21 1.87 3.24-.36 3.23-8-.07-19.8-.15-27.7-.15-13 0-28.46-7.4-24.13-26.25s1.34-33-3.72-53.53 2-34.62 24.48-38.37c8.07-1.33 21.17-2.3 26.77-4.38 3.26-1.21 13.2-7.15 15.48-8.52 0-.02 35.16 22.98 21.58 42.15Z" class="colorf84558 svgShape"/><path fill="#ffffff" d="M313.7 715.49c-2.87-16.34-.84-33.45 0-41.26 1-9 5.65-22.06 1-34.47-5.55-14.93-14.38-14.52-15.22-14.37-20.62 3.45-27.41 18.09-22.5 38 5.08 20.51 8 34.68 3.72 53.53s11.14 26.25 24.15 26.25c6 0 15.48 0 22.67.09A2.39 2.39 0 0 0 329 739c-5.48-4.28-13.19-11.6-15.3-23.51Z" class="colorfff svgShape"/><path fill="#1b2e4e" d="M327.57 743.94c-7.19-.05-16.68-.1-22.67-.1-9.1 0-17.19-3.32-21.63-8.89-3.8-4.78-4.88-10.91-3.21-18.22 4.24-18.49 1.42-32.43-3.71-53.2-2.72-11-1.82-20.36 2.61-27.1 4.07-6.2 10.95-10.15 20.45-11.74.09 0 9.94-1.47 16 14.82 3.56 9.58 1.68 19.6.17 27.64-.48 2.57-.93 5-1.17 7.15l-.09.88c-.87 8-2.67 24.54.09 40.19 1.57 8.91 6.5 16.45 15.07 23a3.1 3.1 0 0 1-1.9 5.54Zm-27.51-117.88h-.44c-9.09 1.53-15.65 5.27-19.5 11.13-4.2 6.4-5 15.38-2.42 26 5.19 21 8 35.06 3.72 53.85-1.58 6.88-.59 12.61 2.94 17 4.17 5.23 11.84 8.36 20.52 8.36 6 0 15.48.05 22.68.1a1.65 1.65 0 0 0 1.6-1.15 1.62 1.62 0 0 0-.56-1.86c-8.86-6.81-14-14.63-15.6-23.91-2.79-15.85-1-32.55-.11-40.58l.1-.88c.24-2.21.7-4.66 1.18-7.26 1.48-7.87 3.32-17.67-.11-26.89-4.85-13.04-12.16-13.91-14-13.91Z" class="color1b2e4e svgShape"/><path fill="#ffffff" d="M308.56 715.49c-2.88-16.34-.85-33.45 0-41.26 1-9 5.65-22.06 1-34.47-5.56-14.93-14.38-14.52-15.23-14.37-20.62 3.45-27.41 18.09-22.49 38 5.07 20.51 8 34.68 3.71 53.53s11.14 26.25 24.16 26.25c6.63 0 17.54 0 24.88.06a1.66 1.66 0 0 0 1-3c-5.47-4-14.7-11.52-17.03-24.74Z" class="colorfff svgShape"/><path fill="#1b2e4e" d="M324.63 743.91c-7.34 0-18.25-.07-24.89-.07-9.1 0-17.19-3.32-21.62-8.89-3.81-4.78-4.89-10.91-3.22-18.22 4.24-18.49 1.43-32.44-3.71-53.2-2.72-11-1.81-20.36 2.61-27.1 4.08-6.2 11-10.15 20.46-11.74.09 0 9.93-1.48 16 14.82 3.56 9.58 1.68 19.6.18 27.64-.49 2.57-.94 5-1.17 7.15l-.1.88c-.86 8-2.66 24.53.09 40.19 2.2 12.47 10.62 19.81 16.77 24.25a2.37 2.37 0 0 1-1.39 4.29Zm-29.72-117.85a4.07 4.07 0 0 0-.43 0c-9.1 1.53-15.66 5.27-19.51 11.13-4.2 6.4-5 15.38-2.42 26 5.19 21 8 35.06 3.72 53.85-1.57 6.88-.58 12.6 2.94 17 4.17 5.23 11.84 8.36 20.52 8.36 6.64 0 17.55 0 24.9.07a1 1 0 0 0 .57-1.73c-6.35-4.59-15.05-12.18-17.34-25.16-2.79-15.85-1-32.56-.1-40.59l.09-.87c.24-2.21.7-4.66 1.19-7.26 1.47-7.87 3.31-17.67-.12-26.89-4.86-13.03-12.17-13.91-14.01-13.91Z" class="color1b2e4e svgShape"/><path fill="#d3c8bc" d="M276.06 651.12c0 10.59 6.68 19.17 14.93 19.17s14.92-8.58 14.92-19.17-6.68-19.18-14.92-19.18-14.93 8.58-14.93 19.18Z" class="colord3c8bc svgShape"/><path fill="#1b2e4e" d="M316.45 667.26c15.49-18.89 13.39-32 11.77-36.72-1.57-4.59-4.7-7.94-8.19-8.75l-.44 1.92c2.78.64 5.44 3.57 6.77 7.46 1.51 4.44 3.43 16.72-11.43 34.85Z" class="color1b2e4e svgShape"/><path fill="#1b2e4e" d="M326.26 689c3.46-3.67 5-7.68 4.56-11.91-.91-9-10.27-15.64-10.67-15.92l-1.15 1.64c.09.07 9 6.45 9.84 14.51.37 3.64-1 7.13-4 10.36Z" class="color1b2e4e svgShape"/><path fill="#1b2e4e" d="M333 679.38c3-4 4.09-8.06 3.28-12.15-1.58-8.07-10-13.19-10.32-13.4l-1 1.69c.08.05 8 4.89 9.41 12.09.68 3.52-.3 7.09-2.93 10.59Z" class="color1b2e4e svgShape"/><path fill="#5c94b9" d="M412.13 497.9c-17.13 18.62-29.75 34.1-53.35 88.26-6.69 15.34-25.46 31.11-25.46 31.11 11.1-5.58 77.55 94.87 30.8 95.61 0 0 33.29 7 73.06-39.12S496.5 519.23 492.62 495s-50.68-29.61-80.49 2.9Z" class="color5c94b9 svgShape"/><path fill="#4b83a8" d="M342.82 608.23c-5.21 5.44-9.5 9-9.5 9 11.1-5.58 77.55 94.87 30.8 95.61 0 0 33.29 7 73.06-39.12 16.58-19.21 29.65-49.28 39-79.56 2.21-7.22-51.67 77.84-133.36 14.07Z" class="color4b83a8 svgShape"/><path fill="#4b83a8" d="M492.62 495c-3.88-24.25-50.68-29.6-80.49 2.91-11.85 12.91-21.58 24.33-34.29 48.17 2.28.15 5.19.39 6.53.43a98.66 98.66 0 0 1 14.11 1.49c15.11 2.58 27.66 11 35.13 24.6 15.75 28.66-.75 63.64-19.43 86.16-9.9 11.92-21.7 21.6-34.29 30.28 2.42 13.52-1.1 23.58-15.77 23.81 0 0 33.29 7 73.06-39.12S496.5 519.23 492.62 495Z" class="color4b83a8 svgShape"/><path fill="#1b2e4e" d="M339.8 546.11c-20.06 0-65.29-3.29-92.88-30.79-16.59-16.54-23.92-39.19-21.77-67.32 5.55-73.1 6.76-94 7.83-112.49.49-8.55 1-16.63 1.8-29.09 1.86-27.37 9-54 20.14-75.13 10.67-20.2 23.62-32.43 35.53-33.56 14.57-1.38 23.2 2 37.49 7.57 4.7 1.83 10 3.91 16.41 6.16a85.17 85.17 0 0 1 24.72 13.87 62.08 62.08 0 0 1 5.53 3.78c20.26 15.58 79.5 80.84 82 83.61l.62.69-.21.9c-6.68 27.91-21 52.15-42.69 72.06 5.63 12.08 15.05 16 23.39 19.46 7.24 3 14.07 5.84 16.33 13.53l.33 1.1-.88.74c-.64.53-64.23 54.21-102.28 123.71l-.45.83-.94.07c-.6.03-4.28.3-10.02.3Zm-43-345.21c-1.89 0-3.86.1-6 .3-21.55 2-48.58 47.57-52.51 105.44-.84 12.44-1.31 20.51-1.8 29.05-1.06 18.48-2.27 39.42-7.83 112.55-2.06 27.08 4.92 48.81 20.74 64.59 32.09 32 91.1 30 99.24 29.53 35.89-65.1 93.74-116.2 101.71-123.08-2.11-5.28-7.35-7.51-13.97-10.28-8.75-3.64-19.65-8.16-25.78-22.44l-.49-1.15.92-.84c21.41-19.38 35.66-43 42.37-70.24-6.53-7.17-62-68-80.93-82.5a60.74 60.74 0 0 0-5.31-3.63l-.18-.12a81.78 81.78 0 0 0-23.79-13.38c-6.45-2.27-11.8-4.36-16.52-6.2-12.08-4.68-19.57-7.6-29.91-7.6ZM486.28 712.88s-10.43 4.2-28.61-25.86-15.76-58.68-3.4-68.86 37.83 23.28 45.58 44.13 11.15 54.39-13.57 50.59Z" class="color1b2e4e svgShape"/><path fill="#f84558" d="M487.49 654.17c-17.09 4.43-32.84 17.51-41.44 41.44-3 8.34-6.58 16.36-4.74 25.55 1.6 8 8 15.07 13.78 18.83 1.87 1.21 1.87 3.24-.36 3.23-8-.07-19.8-.15-27.7-.15-13 0-28.46-7.4-24.14-26.25s1.35-33-3.71-53.53 2-34.62 24.48-38.37c8.07-1.33 21.17-2.3 26.77-4.38 3.26-1.21 13.19-7.15 15.48-8.52 0-.02 35.16 22.98 21.58 42.15Z" class="colorf84558 svgShape"/><path fill="#ffffff" d="M435.86 715.49c-2.87-16.34-.84-33.45 0-41.26 1-9 5.65-22.06 1-34.47-5.55-14.93-14.37-14.52-15.22-14.37-20.62 3.45-27.41 18.09-22.5 38 5.08 20.51 8 34.68 3.72 53.53S414 743.14 427 743.14c6 0 15.48 0 22.67.09a2.39 2.39 0 0 0 1.53-4.23c-5.52-4.28-13.2-11.6-15.34-23.51Z" class="colorfff svgShape"/><path fill="#1b2e4e" d="M449.73 743.94c-7.19-.05-16.68-.1-22.67-.1-9.11 0-17.19-3.32-21.63-8.89-3.8-4.78-4.89-10.91-3.21-18.22 4.24-18.49 1.42-32.44-3.71-53.2-2.72-11-1.82-20.36 2.61-27.1 4.07-6.2 10.95-10.15 20.45-11.74.1 0 9.94-1.48 16 14.82 3.57 9.58 1.69 19.59.18 27.64-.48 2.57-.93 5-1.17 7.15l-.09.85c-.87 8-2.67 24.55.09 40.22 1.57 8.91 6.5 16.45 15.07 23a3.1 3.1 0 0 1-1.9 5.54Zm-27.51-117.88h-.44c-9.09 1.53-15.65 5.27-19.5 11.13-4.2 6.4-5 15.38-2.42 26 5.19 21 8 35.06 3.72 53.85-1.58 6.88-.59 12.6 2.94 17 4.17 5.23 11.84 8.36 20.52 8.36 6 0 15.48.05 22.68.1a1.65 1.65 0 0 0 1.6-1.15 1.62 1.62 0 0 0-.56-1.86c-8.86-6.81-14-14.63-15.6-23.91-2.8-15.87-1-32.58-.1-40.61l.09-.85c.24-2.21.7-4.67 1.18-7.26 1.48-7.88 3.32-17.67-.11-26.89-4.85-13.04-12.16-13.91-14-13.91Z" class="color1b2e4e svgShape"/><path fill="#ffffff" d="M430.72 715.49c-2.88-16.34-.85-33.45 0-41.26 1-9 5.66-22.06 1-34.47-5.56-14.93-14.38-14.52-15.23-14.37-20.62 3.45-27.41 18.09-22.49 38 5.07 20.51 8 34.68 3.71 53.53s11.14 26.25 24.16 26.25c6.63 0 17.54 0 24.88.06a1.66 1.66 0 0 0 1-3c-5.47-4-14.7-11.52-17.03-24.74Z" class="colorfff svgShape"/><path fill="#1b2e4e" d="M446.79 743.91c-7.35 0-18.25-.07-24.89-.07-9.1 0-17.19-3.32-21.62-8.89-3.81-4.78-4.89-10.91-3.22-18.22 4.24-18.49 1.43-32.44-3.71-53.2-2.72-11-1.81-20.36 2.61-27.1 4.08-6.2 11-10.15 20.45-11.74.1 0 9.94-1.48 16 14.82 3.56 9.58 1.68 19.6.17 27.65-.48 2.56-.93 5-1.17 7.14l-.09.87c-.86 8-2.67 24.54.09 40.2 2.2 12.47 10.63 19.81 16.77 24.25a2.37 2.37 0 0 1-1.39 4.29Zm-29.72-117.85a4.07 4.07 0 0 0-.43 0c-9.1 1.53-15.66 5.27-19.51 11.13-4.2 6.4-5 15.38-2.42 26 5.19 21 8 35.06 3.72 53.85-1.57 6.88-.59 12.6 2.94 17 4.17 5.23 11.84 8.36 20.52 8.36 6.64 0 17.55 0 24.9.07a.93.93 0 0 0 .91-.66.92.92 0 0 0-.35-1.07c-6.34-4.59-15-12.18-17.33-25.16-2.79-15.86-1-32.56-.11-40.59l.1-.87c.24-2.21.7-4.66 1.19-7.25 1.47-7.88 3.31-17.68-.12-26.9-4.86-13.04-12.17-13.91-14.01-13.91Z" class="color1b2e4e svgShape"/><path fill="#d3c8bc" d="M398.22 651.12c0 10.59 6.68 19.17 14.92 19.17s14.93-8.58 14.93-19.17-6.68-19.18-14.93-19.18-14.92 8.58-14.92 19.18Z" class="colord3c8bc svgShape"/><path fill="#1b2e4e" d="M438.61 667.26c15.49-18.89 13.39-32 11.77-36.72-1.57-4.59-4.71-7.94-8.19-8.75l-.44 1.92c2.78.64 5.44 3.57 6.77 7.46 1.48 4.44 3.48 16.72-11.43 34.83Z" class="color1b2e4e svgShape"/><path fill="#1b2e4e" d="M448.42 689c3.46-3.67 5-7.68 4.56-11.91-.91-9-10.27-15.64-10.67-15.92l-1.13 1.61c.09.07 9 6.45 9.84 14.51.37 3.64-1 7.13-4 10.36Z" class="color1b2e4e svgShape"/><path fill="#1b2e4e" d="M455.12 679.38c3-4 4.08-8.06 3.27-12.15-1.58-8.07-10-13.19-10.32-13.4l-1 1.69c.08.05 8 4.89 9.41 12.09.68 3.52-.3 7.09-2.93 10.59Z" class="color1b2e4e svgShape"/><path fill="#5c94b9" d="M486.71 561.45c-3.74 16.32-33.52 54-33.52 54 11.09-5.58 79.83 96.73 33.09 97.47 0 0 33.3 7 73.06-39.12s59.32-154.57 55.44-178.8-113.14 1.35-128.07 66.45Z" class="color5c94b9 svgShape"/><path fill="#4b83a8" d="m454.47 613.77-1.28 1.64c11.09-5.58 79.83 96.73 33.09 97.47 0 0 33.3 7 73.06-39.12 24.35-28.2 41.12-79.81 49.58-121.14C583 612 492 614.29 454.47 613.77Z" class="color4b83a8 svgShape"/><path fill="#5c94b9" d="M330.25 540.46c21.75 7.3 61.31 3.54 102.34 3.54s121 5.33 144.78-5.36c16.94-7.62 55.71-33.34 28.67-70.17s-237.81-61.88-261.59-62.81-72.45 115.21-14.2 134.8Z" class="color5c94b9 svgShape"/><path fill="#ffffff" d="m349.49 500.06 1.21-3.74-1.83-.61-1.27 3.72s.65.23 1.89.63ZM509.11 668.93c1.06-.74 2.1-1.49 3.13-2.27l2.37 3.15q-1.61 1.2-3.24 2.34Zm7.67-5.87c1-.83 2-1.68 2.93-2.54l2.62 2.94c-1 .88-2 1.76-3 2.61Zm7.17-6.5c.92-.9 1.83-1.82 2.72-2.75l2.83 2.73c-.92 1-1.85 1.9-2.8 2.83Zm6.67-7c.85-1 1.7-1.95 2.54-2.95l3 2.54c-.86 1-1.73 2-2.61 3Zm6.21-7.48c.8-1 1.58-2.05 2.36-3.09l3.15 2.34c-.79 1.07-1.59 2.13-2.41 3.17Zm5.76-7.83c.74-1.07 1.46-2.15 2.18-3.23l3.28 2.18c-.73 1.1-1.48 2.19-2.23 3.28Zm5.32-8.14c.69-1.1 1.36-2.22 2-3.33l3.38 2c-.67 1.14-1.35 2.27-2 3.39Zm4.92-8.39a225.5 225.5 0 0 0 1.85-3.42l3.48 1.85c-.62 1.16-1.25 2.31-1.89 3.47Zm4.51-8.6q.87-1.75 1.71-3.51l3.55 1.7c-.57 1.19-1.14 2.37-1.73 3.56Zm4.16-8.81c.53-1.19 1-2.38 1.56-3.58l3.62 1.55c-.52 1.21-1 2.42-1.58 3.63Zm3.79-9c.48-1.21 1-2.42 1.42-3.63l3.67 1.4c-.46 1.22-.94 2.45-1.43 3.69Zm3.43-9.13c.44-1.23.86-2.46 1.27-3.68l3.73 1.25c-.42 1.25-.85 2.49-1.29 3.75Zm3.06-9.24c.39-1.26.76-2.5 1.12-3.74l3.78 1.1c-.37 1.26-.75 2.53-1.14 3.8Zm2.68-9.37c.33-1.27.65-2.53 1-3.77l3.82.93c-.31 1.27-.63 2.55-1 3.84Zm2.26-9.46c.28-1.29.54-2.57.78-3.82l3.86.75c-.24 1.27-.51 2.57-.79 3.88Zm1.78-9.56c.21-1.31.39-2.59.56-3.84l3.9.51c-.17 1.28-.36 2.59-.57 3.94Zm1.18-9.61c.11-1.33.19-2.61.25-3.85l3.93.17c-.06 1.29-.15 2.62-.26 4Zm0-13.34 3.91-.46c.15 1.26.25 2.63.3 4.07l-3.93.15c-.04-1.36-.13-2.6-.27-3.75Zm-88.64 1v-3.94h3.91v3.93H491Zm9.82-4h3.91l.07 3.93-3.94.06Zm-19.67 3.8.1-3.94 3.91.08-.06 3.94Zm29.45-4 3.91-.13.15 3.93-4 .13Zm-39.29 3.67.16-3.93 3.91.14-.13 3.93Zm49.06-4.05c1.31-.06 2.62-.13 3.91-.21l.23 3.93c-1.31.08-2.62.15-3.94.21Zm-58.9 3.58.22-3.92 3.91.2-.19 3.93c-1.31-.02-2.62-.09-3.93-.17Zm68.66-4.17c1.31-.09 2.61-.2 3.89-.3l.34 3.92-3.95.31ZM451.69 521l.29-3.92 3.9.27-.26 3.93Zm-9.83-.81.38-3.92 3.74.34h.21l-.49 3.9c-1.28-.07-2.56-.19-3.84-.31Zm98-3.58c1.32-.13 2.61-.28 3.88-.42l.46 3.9c-1.29.16-2.6.3-3.93.43ZM432 519.08l.51-3.9 3.87.47-.46 3.91c-1.27-.15-2.58-.31-3.92-.48Zm117.54-3.63c1.31-.19 2.59-.39 3.84-.59l.63 3.88c-1.27.21-2.58.41-3.92.6Zm-127.3 2.22.61-3.89 3.86.59-.58 3.89Zm136.87-3.85c1.3-.26 2.56-.53 3.77-.82l.9 3.83c-1.25.29-2.55.58-3.9.85ZM412.55 516l.7-3.87 3.85.69-.67 3.88ZM577 513.84l2.59-3a10 10 0 0 1 2.62 4.06l-3.67 1.41a6.48 6.48 0 0 0-1.54-2.47Zm-8.51-2.34c1.28-.39 2.49-.8 3.59-1.23l1.41 3.68c-1.18.45-2.48.9-3.84 1.32Zm-165.62 2.61.8-3.85 3.83.77-.76 3.86q-1.96-.37-3.88-.78Zm-9.65-2.11.88-3.83 3.82.85-.85 3.84c-1.3-.26-2.58-.55-3.85-.86Zm-9.59-2.28.95-3.82c1.24.31 2.51.62 3.8.92l-.92 3.83Zm-9.55-2.46 1-3.8 3.78 1-1 3.81Zm-9.5-2.63 1.08-3.78 3.78 1.07-1.06 3.79Zm-9.46-2.81 1.16-3.75 3.75 1.13-1.13 3.8c-1.37-.42-2.63-.8-3.78-1.16ZM504.74 676.42c.57-.33 1.14-.68 1.71-1l-2.07-3.42c-.54.34-1.1.67-1.65 1Z" class="colorfff svgShape"/><path fill="#ffa47f" d="M354.27 112.38c-33.85-6.62-55.23 7.24-58 22.57a69.7 69.7 0 0 0 4.64 39.94.36.36 0 0 0 0 .09l-14 31.88c11.83 18.89 39.7 11.85 39.7 11.85l6.39-19.36c3.08 1.26 5.65 2 7.25 1.93 13.07-.38 28.69-34.39 29.57-51.25.76-15.03 1.98-34.22-15.55-37.65Z" class="colorffa47f svgShape"/><path fill="#1b2e4e" d="M361.14 126.88c-1.83.52-7.4 1.73-7.4 1.73s-3.45 13.08-6.2 17.73.49 27.22 13.75 28.38.65 11.9-.82 16c-2.09 5.9-.2 11.22-12.34 13.54-8.09 1.55-21.69-8.07-14.8-19.43s12.83-22.85 6.29-37.49-1 16.53-19.28 24.62-23.25 11.54-23.25 11.54-.42-7.44-3-11.79c-8.53-14.17-12.37-26.37-9.62-47.55s13.43-26.86 32.72-27.72 20.19 6.29 32.33 1.44c14.89-6 21.28 5.46 32 3.15.01.03-3.61 21.12-20.38 25.85Z" class="color1b2e4e svgShape"/><path fill="#f2e6d6" d="M343.77 213.09c33.43 11.75 71.64 52.58 64.45 128.91s37.94 56.7 44.15 77.84c0 0-64 53.59-102.68 124.21 0 0-130.88 10.37-122.8-95.94s6.93-101.72 9.64-141.59c3.92-57.89 31.22-104.9 54.08-107.07 18.84-1.78 27.39 4.55 53.16 13.64Z" class="colorf2e6d6 svgShape"/><path fill="#fef8ec" d="M343.77 213.09c33.43 11.75 71.64 52.58 64.45 128.91-5.39 57.25 18.64 60.52 33.62 67.49 5 2.33-104.19 6-174.58 118.66-24.27-13.25-43.63-37.14-40.37-80 8.08-106.31 6.93-101.72 9.64-141.59 3.92-57.89 31.22-104.9 54.08-107.07 18.84-1.82 27.39 4.51 53.16 13.6Z" class="colorfef8ec svgShape"/><path fill="#ffa47f" d="M319 158.82c2.07 6.82 8.48 10.91 14.32 9.14s8.91-8.74 6.84-15.56-8.48-10.91-14.32-9.14-8.9 8.74-6.84 15.56Z" class="colorffa47f svgShape"/><path fill="#1b2e4e" d="M332.94 164.16a2.57 2.57 0 0 0 .82-.14c1.86-.61 2.89-3.19 3-3.48l-1.84-.7c-.25.65-1 2.06-1.78 2.31a.72.72 0 0 1-.68-.13c-.59-.38-.59-.64-.48-1.69a5.76 5.76 0 0 0-1.34-4.84 9.86 9.86 0 0 0-3.51-2.51c-1.58-.77-2-.95-1.45-2.65a2 2 0 0 1 1-1.26c1.78-.94 5.11-.23 6.25.12l.59-1.87c-.2-.07-4.89-1.51-7.76 0a3.94 3.94 0 0 0-2 2.43c-1 3.31.85 4.2 2.47 5a7.94 7.94 0 0 1 2.86 2 3.82 3.82 0 0 1 .89 3.37c-.11 1.12-.26 2.51 1.38 3.55a2.84 2.84 0 0 0 1.58.49Z" class="color1b2e4e svgShape"/><path fill="#ffa47f" d="M652.77 360.69c.22-2.94-10-5.6-15.86-19.35s-9.56-6.53-22.14-10.26-14.92-6.53-25.18 3.26-14 10.26-20.75 8.39-106.82-32-137.07-30.81-77.11 69.73-26.77 87.64c69.66 24.82 165.48-36.95 191.4-30.95 0 0 12.12-1.63 14.92-11.77s14.57-5 16.9-.12 0 11.31 5.13 11.08 5.13-8.05 5.13-8.05 13.92 5.84 14.29.94Z" class="colorffa47f svgShape"/><path fill="#cf7f6e" d="M652.77 360.69c.18-2.52-7.32-4.84-13.13-14.11-50.82-4.28-124.47 56.72-234.69 53 69.66 24.82 165.48-36.95 191.4-30.95 0 0 12.12-1.63 14.92-11.77s14.57-5 16.9-.12 0 11.31 5.13 11.08 5.13-8.05 5.13-8.05 13.97 5.82 14.34.92Z" class="colorcf7f6e svgShape"/><path fill="#fef8ec" d="M308.8 219.36c-10.63 7-36.13 39.51-26.81 69s60.94 91 95.49 121c0 0 61.16-25.83 77.84-95.49 0 0-61.42-67.73-81.78-83.4s-53.01-18.8-64.74-11.11Z" class="colorfef8ec svgShape"/><path fill="#1b2e4e" d="M376.32 331.5a38.28 38.28 0 0 0 8.14-.78l-.48-1.91c-.26.07-28.42 7.29-44.65-19l-1.68 1c11.35 18.46 28.88 20.69 38.67 20.69ZM377.55 411.62l.59-.28c.24-.11 23.77-11.37 40.37-31.19l-1.51-1.27c-14.85 17.74-35.39 28.52-39.11 30.39-5.46-5-54.64-50.79-74.66-93.61l-1.78.83c21.27 45.5 75.07 94.2 75.61 94.69Z" class="color1b2e4e svgShape"/><path fill="#ffffff" d="M505.48 546.26c11.42 0 39.54-2.69 65.83-26.42l-1.31-1.46c-33.16 29.92-69.18 25.74-69.53 25.7l-.25 1.95a48.94 48.94 0 0 0 5.26.23Z" class="colorfff svgShape"/><path fill="#1b2e4e" d="M553.93 551.24H367.59v-8.49h186.34a4.24 4.24 0 0 1 4.24 4.24 4.24 4.24 0 0 1-4.24 4.25Z" class="color1b2e4e svgShape"/><path fill="#f2e6d6" d="M364.92 721.2c-3.12 0-5.64-2.07-5.64-4.62V546.22h11.29v170.36c0 2.55-2.57 4.62-5.65 4.62Z" class="colorf2e6d6 svgShape"/><path fill="#1b2e4e" d="M366.51 548.18h1.97v166.65h-1.97z" class="color1b2e4e svgShape"/><path fill="#1b2e4e" d="M420.29 738.1h2v-15.82a19.78 19.78 0 0 0-19.76-19.76h-74.98a19.77 19.77 0 0 0-19.75 19.76v13.25h2v-13.25a17.81 17.81 0 0 1 17.79-17.79h74.91a17.81 17.81 0 0 1 17.79 17.79Z" class="color1b2e4e svgShape"/><path fill="#1b2e4e" d="M449.12 738.1h2v-15.82a19.78 19.78 0 0 0-19.76-19.76H298.72A19.77 19.77 0 0 0 279 722.28v13.25h2v-13.25a17.8 17.8 0 0 1 17.78-17.79h132.55a17.81 17.81 0 0 1 17.79 17.79Z" class="color1b2e4e svgShape"/><path fill="#1b2e4e" d="M430.63 735.34a9.39 9.39 0 1 1-9.39-9.38 9.39 9.39 0 0 1 9.39 9.38ZM459 735.34a9.39 9.39 0 1 1-9.39-9.38 9.39 9.39 0 0 1 9.39 9.38ZM289.17 735.34a9.39 9.39 0 1 1-9.38-9.38 9.39 9.39 0 0 1 9.38 9.38ZM318.75 735.34a9.39 9.39 0 1 1-9.39-9.38 9.39 9.39 0 0 1 9.39 9.38Z" class="color1b2e4e svgShape"/><path fill="#f2e6d6" d="M252.19 550.51h144.68c-6.53-1.27-39.52-12.33-31.06-106 5.05-55.83-28.87-141.45-39.35-164.23H176.55c-.42 2.65.64 6.64 5.8 12.45 11.64 13.09 36.37 114.44 39.76 143.54 3.3 28.32-23.63 95.37 30.08 114.24Z" class="colorf2e6d6 svgShape"/><path fill="#d3c8bc" d="M252.19 550.51h144.68c-6.53-1.27-39.52-12.33-31.06-106-16.66 53.54-64.36 91.74-140.51 84.13 5.08 9.42 13.47 17.15 26.89 21.87Z" class="colord3c8bc svgShape"/><path fill="#1b2e4e" d="M396.87 551.22H251.96c-40.53-14.24-35.65-56.38-32.09-87.15 1.28-11 2.37-20.5 1.54-27.64-3.54-30.39-28.18-130.31-39.59-143.15-4.52-5.09-6.53-9.47-6-13l.09-.59h151l.19.41c12.62 27.42 44.31 110.45 39.42 164.59-8.39 92.86 23.92 103.92 30.49 105.2Zm-144.56-1.41h140.07c-11.13-4.88-34.55-24.75-27.27-105.32C370 390.93 338.7 308.77 326 281H177.18c-.16 3 1.79 6.88 5.7 11.27 11.53 13 36.38 113.42 39.93 143.93.86 7.3-.25 16.87-1.54 28-3.69 31.94-8.27 71.7 31.04 85.61Z" class="color1b2e4e svgShape"/><path fill="#d3c8bc" d="M405.82 551.57h-15.76s-43.38-6.86-33.34-90.58a28.77 28.77 0 0 1 18.63-23.61c23.54-8.56 71.53-22.56 134.32-22.56 0 0 .63.05 1.66.24-55.86 1.87-98.5 14.4-120.21 22.32A28.74 28.74 0 0 0 372.49 461c-10.05 83.71 33.33 90.57 33.33 90.57Z" class="colord3c8bc svgShape"/><path fill="#d3c8bc" d="M544.51 457.15c-13.26 39.78-26.84 73.39-26.84 73.39s-6.46 21-32.65 21h-15.76c26.19 0 32.66-21 32.66-21s13.59-33.61 26.82-73.39c11.42-34.24-11-40.91-17.41-42.09 4.61-.17 9.32-.24 14.11-.24 0 0 32.33 2.58 19.07 42.33Z" class="colord3c8bc svgShape"/><path fill="#1b2e4e" d="M405.6 553.51c-1.85-.29-45.15-8.13-35-92.75a30.59 30.59 0 0 1 19.91-25.22c23.25-8.48 71.71-22.7 135-22.7h.16c.52 0 13 1.15 19.8 11.49 5.35 8.09 5.68 19.34 1 33.44-13.13 39.37-26.74 73.17-26.82 73.35s-7.21 22.4-34.53 22.4h-79.37Zm-13.73-114.27a26.61 26.61 0 0 0-17.35 22c-9.42 78.4 29.08 87.84 31.57 88.37h79c24.34 0 30.52-18.83 30.83-19.79.13-.33 13.7-34 26.79-73.27 4.29-12.88 4.12-23-.51-30-5.52-8.38-15.87-9.67-16.8-9.76-62.62 0-110.53 14.06-133.53 22.45ZM199.71 337.16h98.46v-1.97h-99.22l.76 1.97zM204.69 356.15h99.17v-1.97h-99.7l.53 1.97zM209.55 375.14h101.91v-1.97h-102.4l.49 1.97zM1104.75 746.48h-480.9a1.75 1.75 0 1 1 0-3.5h480.9a1.75 1.75 0 0 1 0 3.5ZM601.68 746.48H230.9a1.75 1.75 0 1 1 0-3.5h370.78a1.75 1.75 0 0 1 0 3.5ZM208.72 746.48H54.25a1.75 1.75 0 0 1 0-3.5h154.47a1.75 1.75 0 1 1 0 3.5Z" class="color1b2e4e svgShape"/><path fill="#1b2e4e" d="M405.82 552.44h-15.9c-.46-.07-11.3-1.91-21-14.21-8.85-11.25-18.3-33.79-13.08-77.34a29.52 29.52 0 0 1 19.2-24.32c23.21-8.45 71.56-22.62 134.62-22.62.11 0 .76.07 1.82.26l8 1.47-8.08.27c-56.46 1.87-99.4 14.75-119.98 22.25a27.76 27.76 0 0 0-18.06 22.89c-5.14 42.84 4 64.94 12.62 75.93 9.27 11.84 19.87 13.67 20 13.68Zm-15.69-1.75h10.18a41 41 0 0 1-15.61-12.47c-8.85-11.25-18.31-33.79-13.08-77.34a29.49 29.49 0 0 1 19.2-24.32 381.31 381.31 0 0 1 80.41-19.11c-43.91 4.05-77.45 14.16-95.58 20.75a27.77 27.77 0 0 0-18.06 22.89c-5.14 42.84 4 64.94 12.63 75.93 8.9 11.37 19.04 13.51 19.91 13.67Z" class="color1b2e4e svgShape"/></svg>