<?xml version="1.0" standalone="no"?>
<!DOCTYPE svg PUBLIC "-//W3C//DTD SVG 20010904//EN"
 "http://www.w3.org/TR/2001/REC-SVG-20010904/DTD/svg10.dtd">
<svg version="1.0" xmlns="http://www.w3.org/2000/svg"
 width="512.000000pt" height="512.000000pt" viewBox="0 0 512.000000 512.000000"
 preserveAspectRatio="xMidYMid meet">
<metadata>
Created by potrace 1.16, written by Peter Selinger 2001-2019
</metadata>
<g transform="translate(0.000000,512.000000) scale(0.100000,-0.100000)"
fill="#000000" stroke="none">
<path d="M2043 4245 c-273 -61 -514 -275 -604 -538 -15 -45 -33 -111 -38 -147
-14 -84 -14 -346 0 -430 45 -281 240 -530 504 -639 136 -57 176 -61 618 -61
221 0 436 -5 477 -10 171 -22 310 -139 362 -303 15 -51 18 -95 18 -320 l0
-260 25 -43 c37 -63 95 -94 175 -94 82 0 138 31 177 98 l28 47 0 305 0 305
-32 95 c-91 268 -287 462 -558 551 -68 22 -84 23 -555 29 -429 6 -491 8 -535
24 -122 43 -208 120 -264 236 l-36 75 0 180 0 180 36 75 c70 146 190 231 354
251 51 6 243 9 478 7 l392 -3 55 -26 c117 -55 174 -136 189 -270 5 -41 15 -88
24 -104 68 -133 265 -142 352 -17 28 42 30 49 29 140 -1 285 -192 546 -473
646 l-86 31 -525 2 c-416 1 -538 -1 -587 -12z"/>
<path d="M1450 1739 c-73 -29 -120 -110 -120 -206 1 -309 228 -584 542 -658
52 -12 159 -15 601 -15 508 0 540 1 575 19 140 72 144 280 7 358 -40 23 -41
23 -515 23 -283 0 -501 4 -540 11 -151 24 -260 137 -260 269 0 79 -45 157
-110 190 -43 22 -136 26 -180 9z"/>
</g>
</svg>
